# xmcd
#
# Track frame offsets: 
#        150
#        16232
#        27679
#        42865
#        56258
#        73196
#
# Disc length: 1195 seconds
#
# Revision: 0
# Processed by: cddbd v1.5.2PL0 Copyright (c) Steve Scherf et al.
# Submitted via: ExactAudioCopyFreeDBPlugin 1.0
#
DISCID=4b04a906
DTITLE=Veranda - Woodland Waltz
DYEAR=2018
DGENRE=Country
TTITLE0=You can run!
TTITLE1=On my knees
TTITLE2=Northern wind
TTITLE3=Woodland waltz
TTITLE4=Mary
TTITLE5=Take me away
EXTD=
EXTT0=
EXTT1=
EXTT2=
EXTT3=
EXTT4=
EXTT5=
PLAYORDER=
